<?xml version="1.0" encoding="UTF-8" standalone="no"?>
<svg width="674px" height="91px" viewBox="0 0 674 91" version="1.1" xmlns="http://www.w3.org/2000/svg" xmlns:xlink="http://www.w3.org/1999/xlink">
    <!-- Generator: Sketch 3.6.1 (26313) - http://www.bohemiancoding.com/sketch -->
    <title>Group 3</title>
    <desc>Created with Sketch.</desc>
    <defs></defs>
    <g id="Page-1" stroke="none" stroke-width="1" fill="none" fill-rule="evenodd">
        <g id="Desktop" transform="translate(-135.000000, -1635.000000)">
            <g id="Group-3" transform="translate(135.000000, 1635.000000)">
                <path d="M400.831,30.611 L343.804,10.598 L286.781,30.611 L229.755,10.598 L172.73,30.611 L115.706,10.598 L58.679,30.611 L0,10.017 L3.312,0.581 L58.679,20.013 L115.706,0 L172.73,20.013 L229.755,0 L286.781,20.013 L343.804,0 L400.831,20.013 L457.858,0 L514.888,20.013 L570.263,0.581 L573.574,10.017 L514.888,30.611 L457.858,10.598 L400.831,30.611 Z" id="Page-1" fill="#FF3257"></path>
                <path d="M400.831,60.611 L343.804,40.598 L286.781,60.611 L229.755,40.598 L172.73,60.611 L115.706,40.598 L58.679,60.611 L0,40.017 L3.312,30.581 L58.679,50.013 L115.706,30 L172.73,50.013 L229.755,30 L286.781,50.013 L343.804,30 L400.831,50.013 L457.858,30 L514.888,50.013 L570.263,30.581 L573.574,40.017 L514.888,60.611 L457.858,40.598 L400.831,60.611 Z" id="Page-1" fill="#EAC543"></path>
                <path d="M500.831,90.611 L443.804,70.598 L386.781,90.611 L329.755,70.598 L272.73,90.611 L215.706,70.598 L158.679,90.611 L100,70.017 L103.312,60.581 L158.679,80.013 L215.706,60 L272.73,80.013 L329.755,60 L386.781,80.013 L443.804,60 L500.831,80.013 L557.858,60 L614.888,80.013 L670.263,60.581 L673.574,70.017 L614.888,90.611 L557.858,70.598 L500.831,90.611 Z" id="Page-1" fill="#DF67CE"></path>
            </g>
        </g>
    </g>
</svg>